<?xml version="1.0" encoding="utf-8"?>
<!-- Generator: Adobe Illustrator 28.0.0, SVG Export Plug-In . SVG Version: 6.00 Build 0)  -->
<svg version="1.1" id="Layer_1" xmlns="http://www.w3.org/2000/svg" xmlns:xlink="http://www.w3.org/1999/xlink" x="0px" y="0px"
	 viewBox="0 0 750 365" style="enable-background:new 0 0 750 365;" xml:space="preserve">
<style type="text/css">
	.st0{fill:#1A1A1A;}
	.st1{fill:#23C09C;}
	.st2{fill:#FFFFFF;}
</style>
<g>
	<path class="st0" d="M685,340H65c-22,0-40-18-40-40V65c0-22,18-40,40-40h620c22,0,40,18,40,40v235C725,322,707,340,685,340z"/>
	<g>
		<g>
			<path class="st1" d="M110.61,236.14l4.31-1.55c1.7-0.61,2.83-2.22,2.83-4.03v-52.53c0-0.05,0.06-0.07,0.09-0.03l53.23,57.04
				c1.17,1.25,2.97,1.69,4.58,1.11l4.3-1.55c1.7-0.61,2.83-2.22,2.83-4.03v-64.08c0-1.92-0.73-3.76-2.04-5.16l-29.33-31.36
				c-1.17-1.25-2.96-1.68-4.57-1.11l-4.34,1.55c-1.7,0.61-2.84,2.22-2.84,4.03l-0.01,52.53c0,0.05-0.06,0.07-0.09,0.03l-53.24-57.04
				c-1.17-1.25-2.97-1.69-4.58-1.11l-4.3,1.55c-1.7,0.61-2.83,2.22-2.83,4.03v64.07c0,1.92,0.73,3.76,2.04,5.16l29.36,31.37
				C107.21,236.28,109,236.72,110.61,236.14z M149.51,142.12l23.44,25.16v55.54l-23.44-25.16V142.12z M84.47,142.18l23.44,25.16
				v55.54l-23.44-25.16V142.18z"/>
			<g>
				<g>
					<path class="st2" d="M381.95,141.26c-29.48,0-41.02,10.36-41.02,41.23c0,30.86,11.54,41.23,41.02,41.23
						c29.71,0,41.02-10.36,41.02-41.23C422.98,151.63,411.66,141.26,381.95,141.26z M381.95,214.96c-22.92,0-29.85-8.06-29.85-32.47
						c0-24.3,6.94-32.47,29.85-32.47c22.92,0,29.85,8.18,29.85,32.47C411.81,206.9,404.87,214.96,381.95,214.96z"/>
					<polygon class="st2" points="426.45,150.94 459.87,150.94 459.87,222.8 470.58,222.8 470.58,150.94 504,150.94 504,142.19 
						426.45,142.19 					"/>
					<path class="st2" d="M550.58,186.73l-28.96-44.54h-11.75l32.74,50.03c1.74,2.73,2.67,5.9,2.67,9.14v21.44H556v-21.44
						c0-3.24,0.92-6.41,2.67-9.14l32.74-50.03h-11.75L550.58,186.73z"/>
					<path class="st2" d="M643.69,142.19h-26.06h-4.97h-5.08h-4.78h-1.43v11.4v3.43v49.53v4.85v5.19v4.78v1.43h11.29h3.54h29.1
						c24.76,0,30.06-19.92,30.06-40.65C675.36,161.42,669.49,142.19,643.69,142.19z M641.04,214.04h-23.66
						c-4.38,0-5.3-1.27-5.3-5.53v-52.17c0-3.8,1.04-5.41,5.3-5.41h23.08c20.15,0,23.72,13.93,23.72,31.21
						C664.19,199.42,661.2,214.04,641.04,214.04z"/>
					<path class="st2" d="M312.07,142.19v66.63l-60.03-65.84c-1.26-1.35-3.2-1.82-4.93-1.2l-4.63,1.67
						c-1.83,0.66-3.05,2.4-3.05,4.35l0,74.99h10.59l0-66.63l60.02,65.84c1.26,1.35,3.2,1.82,4.93,1.2l4.63-1.67
						c1.83-0.66,3.05-2.4,3.05-4.35v-74.99H312.07z"/>
				</g>
			</g>
		</g>
	</g>
</g>
</svg>
